# xmcd CD database file
#
# Track frame offsets:
#	150
#	23215
#	47240
#	70342
#
# Disc length: 1253 seconds
#
# Revision: 0
# Processed by: cddbd v1.5PL3 Copyright (c) Steve Scherf et al.
# Submitted via: CDex 1.50
#
DISCID=3204e304
DTITLE=鈴木裕美子 - "キミ" 〜Identification〜
DYEAR=1998
DGENRE=Anime
TTITLE0="キミ" 〜Identification〜
TTITLE1=朝とパレード
TTITLE2="キミ" 〜Identification〜（オリジナルカラオケ）
TTITLE3=朝とパレード（オリジナルカラオケ）
EXTD=YEAR: 1998
EXTT0=
EXTT1=
EXTT2=
EXTT3=
PLAYORDER=
